<svg id="all" xmlns="http://www.w3.org/2000/svg" width="200" height="200" viewBox="0 0 512 512">
  <path class="side" fill="#E7EBC1" d="M409.6 298.1c0 1.124-.033 2.216-.098 3.31-.225 6.008-1.22 11.728-2.73 17.127 0 0-.033.032-.033.065-.13.353-.258.707-.354 1.06-.29.964-.643 1.896-1.028 2.828-12.79 36.794-52.443 59.223-75.644 72.59-27.925 16.132-29.403 10.412-54.05 10.412-2.956 0-6.427.193-10.315.482-9.738.74-21.916 2.217-34.16 3.406-23.62 2.28-47.527 3.44-54.853-3.888l219.026-126.448L409.6 298.1z"/>
  <path fill="#FFFFFF" d="M395.354 279.052c37.722 21.78-6.044 46.788-54.783 74.928-48.738 28.14-62.19 45.888-164.218 51.516 9.748-58.907 40.487-66.674 89.226-94.814 48.74-28.14 92.054-53.41 129.776-31.63z"/>
  <path fill="#CD564C" d="M180.226 402.058c8.633-45.597 30.832-57.716 66.954-77.445 6.367-3.477 12.948-7.073 20.005-11.146l.847-.49c34.676-20.024 67.428-38.938 96.252-38.938 10.742 0 20.38 2.55 29.464 7.794 8.388 4.842 12.64 9.942 12.64 15.157-.003 15.284-33.838 34.818-66.562 53.707l-.863.5c-7.058 4.075-13.283 7.876-19.305 11.55-34.962 21.34-56.285 34.353-139.432 39.31z"/>
  <path fill="#DDDDDD" d="M403.172 305.81c-1.382 2.025-3.15 4.114-5.27 6.235-10.476 10.508-29.403 22.012-49.037 33.452-2.988 1.735-6.01 3.47-9.03 5.206l-.868.482c-.064.032-.16.096-.225.128-4.177 2.41-8.097 4.756-11.825 6.973v.032c-2.474 1.51-4.884 2.99-7.263 4.435-30.335 18.51-50.418 30.752-109.48 36.89 7.872-36.665 26.99-46.948 57.712-63.336 4.756-2.54 9.673-5.174 14.878-8.066.836-.48 1.67-.93 2.507-1.413l.74-.418c2.378-1.35 4.788-2.7 7.134-4.018 3.792-2.153 7.552-4.242 11.28-6.266 5.172-2.796 10.282-5.463 15.327-7.937 17.29-8.516 33.742-14.59 48.94-14.88h1.062c5.334 0 10.315.708 15.103 2.154 3.534 1.028 6.91 2.474 10.218 4.306.096.032.225.096.32.16 3.377 1.93 5.948 3.89 7.78 5.88z"/>
  <path class ="strip" fill="#FF7D41" d="M409.503 301.41c-.225 6.008-1.22 11.728-2.73 17.127 0 0-.033.032-.033.065-.13.353-.257.707-.353 1.06-.29.964-.643 1.896-1.028 2.828-10.51 26.382-53.022 49.1-78.762 65.586-12.21 7.84-28.02 11.568-60.926 17.417 0 0-.096.16-.32.482-9.738.74-21.916 2.217-34.16 3.406 41.935-7.326 77.572-17.062 102.444-31.426 24.84-14.332 64.268-40.843 72.752-68.414.897-2.925 1.958-5.624 3.115-8.13z"/>
  <path fill="#FFFFFF" d="M329.463 309.145c-10.82 0-20.152-3.514-25.527-7.4-1.722-1.234-3.048-2.49-3.886-3.7-.465-.675-.768-1.303-.93-1.908-.164-.582-.048-1.187.255-1.838l-4.073 8.307-.535 1.07c-.163.442-.256.86-.256 1.28 0 .745.164 1.536.467 2.304 2.536 6.587 15.265 13.87 30.833 14.243 4.414.11 8.775-.36 12.93-1.4v-11.897c-2.98.61-6.085.94-9.277.94z"/>
  <path fill="#FFFFFF" d="M390.664 280.64l-7.586 4.374-7.633 4.42-24.922 14.382c-3.545 2.053-7.53 3.517-11.784 4.39V320.1c3.708-.928 7.253-2.306 10.502-4.183l36.116-20.757 7.632-4.422-2.326-10.1z"/>
  <path fill="#FFFFFF" d="M338.743 351.313c-4.177 2.41-8.097 4.756-11.825 6.973h.16c-.032 0-.096 0-.16.032-2.314.257-4.627.386-6.91.386-.288 0-.577 0-.866-.032-23.297-.353-44.088-14.525-37.437-28.15h-.064l1.125-2.28 7.52-15.36c-.13.32-.225.61-.257.9-.514 2.86.707 5.847 3.117 8.61 5.302 5.914 16.356 10.862 29.113 11.473.257 0 .546.032.804 0 2.28.096 4.595 0 6.91-.225.03.032.03.032.063 0 1.157-.096 2.314-.257 3.47-.482.13 0 .257-.032.354-.064.93-.16 1.863-.354 2.762-.58l.772-.192c.45-.096.9-.225 1.35-.353v19.343z"/>
  <path fill="#FFFFFF" d="M397.902 312.045c-10.476 10.508-29.403 22.012-49.037 33.452-2.988 1.735-6.01 3.47-9.03 5.206l-.868.482c-.064.032-.16.096-.225.128v-19.345c1.607-.482 3.213-1.028 4.756-1.703 1.542-.643 3.085-1.382 4.53-2.25l.515-.29 46.755-26.99 2.604 11.31z"/>
  <path class="captain" fill="#8CDDFF" d="M325.81 321.502c-15.568-.373-28.297-7.656-30.833-14.242-.303-.768-.466-1.56-.466-2.304 0-.42.094-.838.257-1.28l-3.793 7.75c-.023.022-.046.07-.046.092-.28.465-.512.93-.652 1.373-.116.303-.21.606-.256.885-1.582 8.936 13.52 19.22 32.253 20.082 5.552.246 11.158-.347 16.467-1.9V320.1c-4.155 1.04-8.517 1.512-12.93 1.402z"/>
  <path class="captain" fill="#5DC4F0" d="M395.295 300.72l-2.304-9.982-7.63 4.422-36.117 20.757c-3.25 1.877-6.794 3.255-10.503 4.184v11.857c3.234-.947 6.36-2.248 9.294-3.94l47.26-27.296z"/>
  <linearGradient id="a" x1="323.933" x2="348.519" y1="332.015" y2="331.713" gradientUnits="userSpaceOnUse">
    <stop offset="0" stop-color="#F5E484"/>
    <stop offset="1" stop-color="#EDD679"/>
  </linearGradient>
  <path class="cap" fill="url(#a)" d="M348.865 345.497c-2.988 1.735-6.01 3.47-9.03 5.206l-.868.482c-.064.032-.16.096-.225.128-4.177 2.41-8.097 4.756-11.825 6.973v.032c-2.314.257-4.627.386-6.91.386h-.866v-.032l3.92-24.775v-.032l1.96-12.404 1.96-12.37v-.033c.42.032.837.032 1.222.064.418.033.835.033 1.253.033.964 0 1.928-.032 2.892-.097.386 0 .77-.032 1.157-.096.546-.032 1.125-.096 1.67-.16.805-.097 1.64-.225 2.443-.354.386-.064.74-.128 1.125-.225.097 0 .225-.03.322-.063 1.542-.32 3.053-.74 4.5-1.253.192-.064.352-.128.513-.193.578-.192 1.157-.417 1.735-.642.675-.257 1.318-.546 1.96-.836.096 0 .16-.032.257-.128.03 0 .03-.032.063-.032v.032l.225 11.28v.03l.225 11.312.322 17.77z"/>
  <path fill="#DDDDDD" d="M390.664 280.64l-7.586 4.374-7.633 4.42-24.922 14.382c-6.027 3.49-13.31 5.33-21.06 5.33-10.82 0-20.152-3.515-25.527-7.4-1.722-1.235-3.048-2.49-3.886-3.7-.465-.676-.768-1.304-.93-1.91-.164-.58-.048-1.186.255-1.837 0 0 0-.024.023-.024.93-1.93 3.63-4.026 6.33-5.562l49.45-28.553 35.486 20.48z"/>
  <linearGradient id="b" x1="323.848" x2="348.475" y1="325.325" y2="325.023" gradientUnits="userSpaceOnUse">
    <stop offset="0" stop-color="#8CDDFF"/>
    <stop offset="1" stop-color="#5DC4F0"/>
  </linearGradient>
  <path class="captain" fill="url(#b)" d="M348.545 327.738l-.512.28c-2.932 1.698-6.05 3-9.285 3.93-5.073 1.49-10.38 2.095-15.684 1.932l1.955-12.426c.255.023.534.047.79.047 4.42.117 8.773-.372 12.938-1.395 3.35-.838 6.562-2.048 9.564-3.677l.233 11.31z"/>
  <g fill="#CD564C">
    <path d="M288.308 352.8c1.463.843 2.194 1.95 2.194 3.057s-.73 2.213-2.194 3.058c-1.462.844-3.38 1.266-5.296 1.266-1.917 0-3.834-.42-5.296-1.265-1.462-.845-2.194-1.95-2.194-3.058 0-1.107.73-2.213 2.194-3.058 1.463-.845 3.38-1.267 5.296-1.267 1.916 0 3.833.42 5.296 1.266z"/>
    <path d="M290.5 355.856c0 1.107-.73 2.213-2.193 3.058-1.462.844-3.38 1.266-5.296 1.266-1.916 0-3.833-.422-5.295-1.266-1.462-.845-2.194-1.95-2.194-3.058 0-1.107 4.038-254.97 7.49-254.97 3.454 0 7.49 253.864 7.49 254.97z"/>
  </g>
  <path class="sailpost" fill="#DF938D" d="M279.82 324.33c-36.113 20.85-181.782 79.432-175.04 82.096 11.105 4.777 169.744-63.31 175.653-69.752 9.997-10.895-.613-12.343-.613-12.343zM281.626 297.947c24.72-14.272 124.435-54.373 119.82-56.197-7.6-3.27-116.194 43.34-120.24 47.747-6.842 7.46.42 8.45.42 8.45z"/>
  <linearGradient id="c" x1="181.033" x2="236.456" y1="247.194" y2="286.872" gradientUnits="userSpaceOnUse">
    <stop offset="0" stop-color="#FFF2AD"/>
    <stop offset=".408" stop-color="#FAECA2"/>
    <stop offset="1" stop-color="#F0E08B"/>
  </linearGradient>
  <path class="sail" fill="url(#c)" d="M102.4 407.8c70.875-66.828 174.31-285.61 181.274-303.973 3.99-.674-15.075 161.33-116.777 276.732L102.4 407.8z"/>
  <linearGradient id="d" x1="216.89" x2="283.628" y1="268.089" y2="315.868" gradientUnits="userSpaceOnUse">
    <stop offset="0" stop-color="#FFF2AD"/>
    <stop offset=".408" stop-color="#FAECA2"/>
    <stop offset="1" stop-color="#F0E08B"/>
  </linearGradient>
  <path class="sail" fill="url(#d)" d="M176.353 380.444c54.363-51.258 102.092-191.71 107.435-205.796 3.06-.517.936 121.586-18.132 166.324l-89.303 39.472z"/>
  <linearGradient id="e" x1="246.475" x2="382.061" y1="166.21" y2="263.281" gradientUnits="userSpaceOnUse">
    <stop offset="0" stop-color="#FFF2AD"/>
    <stop offset=".408" stop-color="#FAECA2"/>
    <stop offset="1" stop-color="#F0E08B"/>
  </linearGradient>
  <path class="sail" fill="url(#e)" d="M284.723 112.787c77.553 61.86 110.572 132.01 110.572 132.01s-37.245 24.97-96.25 39.856c0 0 18.347-81.003-14.322-171.866z"/>
  <g>
    <path fill="#FFFFFF" d="M384.393 341.642c0 4.294-3.337 10.382-7.482 12.775-4.144 2.393-7.48.16-7.48-4.136 0-4.293 3.336-9.02 7.48-11.414 4.146-2.393 7.483-1.518 7.483 2.776z"/>
    <path fill="#ABD8E6" d="M384.15 341.827c0 4.154-3.23 10.02-7.238 12.336-4.01 2.315-7.238.176-7.238-3.978s3.23-8.75 7.238-11.064c4.008-2.313 7.237-1.447 7.238 2.707z"/>
    <path fill="#ABD8E6" d="M383.116 342.593c0 3.558-2.77 8.508-6.205 10.49-3.433 1.984-6.204.232-6.204-3.326 0-3.558 2.77-7.575 6.205-9.557 3.435-1.983 6.206-1.165 6.206 2.393z"/>
    <path fill="#ABD8E6" d="M382.77 342.845c0 3.358-2.617 8.003-5.86 9.875-.224.13-.445.242-.664.34-.66.295-1.287.428-1.854.446-.184.006-.365-.003-.538-.027-.144-.02-.29-.045-.425-.09-.11-.025-.212-.057-.31-.1-.294-.115-.567-.277-.808-.48-.44-.37-.774-.88-.99-1.503-.17-.497-.265-1.068-.265-1.7 0-3.357 2.617-7.176 5.854-9.045.61-.352 1.205-.612 1.758-.775.688-.203 1.32-.258 1.876-.172.31.047.59.14.836.275.09.04.168.095.243.148.1.07.2.156.285.244.103.106.205.22.294.352.272.4.46.914.53 1.543.024.21.038.434.038.668z"/>
    <path fill="#ABD8E6" d="M381.38 339.89c-3.297 5.685-4.96 8.37-8.26 13.398-.295-.114-.568-.276-.81-.48-.438-.37-.773-.88-.988-1.502 2.927-4.34 4.404-6.65 7.345-11.52.688-.202 1.32-.257 1.876-.17.31.046.59.138.836.274zM382.732 342.177c-2.584 4.55-3.888 6.73-6.487 10.882-.66.292-1.283.436-1.854.445 3.125-4.854 4.697-7.434 7.81-12.87.276.397.458.912.532 1.542zM381.907 340.282c-3.212 5.587-4.834 8.232-8.054 13.196-.145-.02-.29-.044-.425-.09 3.275-5.012 4.925-7.69 8.194-13.35.103.07.2.152.285.244z"/>
  </g>
  <g>
    <path fill="#ABD8E6" d="M360.48 357.927c0 4.294-3.338 10.382-7.483 12.775-4.145 2.393-7.482.158-7.482-4.136 0-4.294 3.337-9.022 7.482-11.415 4.145-2.392 7.482-1.518 7.482 2.777z"/>
    <path fill="#FFFFFF" d="M360.235 358.11c0 4.154-3.23 10.022-7.238 12.337-4.01 2.314-7.238.175-7.238-3.978 0-4.154 3.228-8.75 7.237-11.064 4.01-2.315 7.238-1.45 7.238 2.705z"/>
    <path fill="#ABD8E6" d="M359.2 358.877c0 3.558-2.77 8.508-6.204 10.49-3.434 1.984-6.205.232-6.205-3.325 0-3.558 2.77-7.575 6.205-9.557 3.436-1.984 6.206-1.166 6.206 2.392z"/>
    <path fill="#ABD8E6" d="M358.855 359.13c0 3.357-2.617 8.002-5.86 9.874-.224.13-.445.242-.664.34-.658.295-1.286.428-1.853.446-.184.006-.365-.003-.538-.026-.145-.02-.29-.044-.426-.09-.108-.024-.21-.056-.31-.1-.294-.115-.566-.277-.807-.48-.44-.37-.774-.88-.99-1.504-.17-.496-.264-1.068-.264-1.7 0-3.357 2.617-7.176 5.854-9.045.61-.35 1.204-.612 1.756-.774.688-.202 1.32-.257 1.876-.17.308.046.588.138.835.274.09.04.168.095.243.148.1.07.2.156.284.244.103.106.205.22.294.352.272.4.46.913.53 1.543.026.21.04.436.04.67z"/>
    <path fill="#ABD8E6" d="M357.465 356.174c-3.296 5.685-4.96 8.372-8.26 13.398-.295-.114-.567-.276-.808-.48-.44-.37-.775-.88-.99-1.503 2.928-4.34 4.405-6.65 7.346-11.52.688-.203 1.32-.258 1.876-.172.307.05.588.14.835.276zM358.818 358.462c-2.584 4.55-3.888 6.73-6.487 10.882-.66.293-1.282.438-1.853.446 3.124-4.854 4.696-7.434 7.81-12.87.274.396.456.91.53 1.542zM357.992 356.566c-3.212 5.587-4.834 8.232-8.054 13.196-.145-.02-.29-.044-.425-.09 3.274-5.013 4.925-7.69 8.194-13.35.103.07.202.153.285.244z"/>
  </g>
  <g>
    <path fill="#587A9C" d="M336.564 374.21c0 4.295-3.337 10.383-7.482 12.776-4.145 2.393-7.482.16-7.482-4.136 0-4.294 3.337-9.022 7.482-11.415 4.145-2.393 7.482-1.52 7.482 2.776z"/>
    <path fill="#ffffff" d="M336.32 374.395c0 4.154-3.228 10.02-7.237 12.336-4.01 2.316-7.238.177-7.238-3.977 0-4.153 3.23-8.75 7.238-11.063 4.008-2.315 7.238-1.448 7.238 2.705z"/>
    <path fill="#ABD8E6" d="M335.287 375.16c0 3.56-2.77 8.51-6.205 10.492-3.434 1.983-6.205.23-6.205-3.327 0-3.558 2.77-7.575 6.205-9.557 3.434-1.982 6.205-1.165 6.205 2.393z"/>
    <path fill="#ABD8E6" d="M334.94 375.413c0 3.358-2.617 8.003-5.86 9.875-.224.13-.445.242-.664.34-.66.295-1.287.427-1.854.446-.184.006-.365-.003-.538-.026-.145-.02-.29-.044-.426-.09-.107-.024-.21-.056-.308-.1-.295-.115-.567-.276-.808-.48-.44-.37-.774-.88-.99-1.503-.17-.496-.264-1.068-.264-1.7 0-3.357 2.617-7.176 5.854-9.045.61-.352 1.204-.612 1.756-.775.688-.203 1.32-.258 1.876-.172.31.047.59.14.836.275.09.04.168.095.243.148.1.07.2.156.285.244.103.106.205.22.294.352.272.4.46.914.532 1.544.023.21.036.434.036.667z"/>
    <path fill="#ABD8E6" d="M333.55 372.46c-3.295 5.684-4.96 8.37-8.26 13.397-.294-.115-.566-.276-.807-.48-.44-.37-.774-.88-.99-1.503 2.928-4.34 4.405-6.65 7.346-11.52.687-.202 1.32-.257 1.875-.17.308.047.588.14.836.275zM334.903 374.746c-2.585 4.55-3.888 6.73-6.487 10.882-.66.293-1.283.437-1.854.446 3.124-4.853 4.696-7.433 7.81-12.87.275.396.457.91.53 1.542zM334.078 372.85c-3.212 5.588-4.834 8.233-8.054 13.197-.145-.02-.29-.044-.426-.09 3.275-5.013 4.925-7.69 8.195-13.35.103.07.2.152.285.244z"/>
  </g>
</svg>
